<svg xmlns="http://www.w3.org/2000/svg"><path d="M285.889 146.854a383.21 383.21 0 01-6.997-2.542v-39.826c5.207 1.42 7.86 4.044 8.044 4.233 3.633 4.125 9.921 4.544 14.072.93 4.165-3.628 4.6-9.944.972-14.108-3.784-4.344-11.753-9.821-23.088-11.473V77c0-5.522-4.477-10-10-10s-10 4.478-10 10v8.229a63.458 63.458 0 00-3.148.852c-13.034 3.927-22.771 15.067-25.411 29.076-2.414 12.812 1.716 25.186 10.779 32.294 4.555 3.573 10.171 6.847 17.779 10.278v50.783c-6.198-.616-10.442-2.352-17.418-6.915-4.622-3.026-10.819-1.728-13.843 2.894-3.023 4.622-1.728 10.82 2.895 13.843 11.076 7.246 18.763 9.578 28.366 10.245V237c0 5.522 4.477 10 10 10s10-4.478 10-10v-9.323c19.01-4.322 31.214-20.335 33.869-36.129 3.394-20.181-7.154-37.724-26.871-44.694zm-32.433-15.139c-3.117-2.445-4.479-7.49-3.468-12.854.85-4.51 3.627-9.848 8.905-12.566v29.03c-2.014-1.167-3.855-2.369-5.437-3.61zm39.582 56.516c-1.217 7.24-6.02 14.903-14.146 18.496v-41.134l.332.119c15.415 5.448 14.471 18.614 13.814 22.519zM76 122h110c8.284 0 15-6.716 15-15s-6.716-15-15-15H76c-8.284 0-15 6.716-15 15s6.716 15 15 15zm0 60h110c8.284 0 15-6.716 15-15s-6.716-15-15-15H76c-8.284 0-15 6.716-15 15s6.716 15 15 15zm0 60h110c8.284 0 15-6.716 15-15s-6.716-15-15-15H76c-8.284 0-15 6.716-15 15s6.716 15 15 15zm220 30H76c-8.284 0-15 6.716-15 15s6.716 15 15 15h220c8.284 0 15-6.716 15-15s-6.716-15-15-15zm0 60H76c-8.284 0-15 6.716-15 15s6.716 15 15 15h220c8.284 0 15-6.716 15-15s-6.716-15-15-15zm0 60H76c-8.284 0-15 6.716-15 15s6.716 15 15 15h220c8.284 0 15-6.716 15-15s-6.716-15-15-15z"/><path d="M502.904 303.684a15.004 15.004 0 00-15.549 1.058l-33.899 23.904-33.9-23.904a15.002 15.002 0 00-17.292.003L371 326.806V15a14.997 14.997 0 00-8.096-13.316 15.004 15.004 0 00-15.549 1.058l-33.899 23.904-33.898-23.905a15.004 15.004 0 00-17.293.003l-33.862 23.895-33.828-23.891a15 15 0 00-17.308 0l-33.819 23.888-33.83-23.889a15.003 15.003 0 00-17.305 0l-33.831 23.89-33.83-23.89A15 15 0 001 15v402c0 52.383 42.617 95 95 95h330c46.869 0 85-38.131 85-85V317a14.997 14.997 0 00-8.096-13.316zM31 417V43.956l18.83 13.297a15.004 15.004 0 0017.306 0l33.83-23.89 33.832 23.89a14.999 14.999 0 0017.307-.001l33.818-23.888 33.823 23.888a15.005 15.005 0 0017.302.004l33.869-23.899 33.896 23.902a15.004 15.004 0 0017.289 0L341 43.932V427c0 20.962 7.643 40.163 20.269 55H96c-35.841 0-65-29.159-65-65zm450 10c0 30.327-24.673 55-55 55s-55-24.673-55-55v-65.227a14.973 14.973 0 006.047-2.518l33.869-23.899 33.896 23.902a15.004 15.004 0 0017.289 0L481 345.932z"/></svg>