<svg xmlns="http://www.w3.org/2000/svg" viewBox="0 0 391.528 391.528"><path d="M336 154.94v88l55.528-21.104-76.944-193.248L0 154.94" fill="#6f9935"/><path d="M352 236.86v-97.92H39.84L16 148.516v6.424h320v88l16-6.08z" fill="#658b30"/><path d="M0 154.94h336v208H0v-208z" fill="#79a73a"/><path d="M32 224.62a56.122 56.122 0 0037.68-37.68h196.64A56.114 56.114 0 00304 224.62v68.64a56.114 56.114 0 00-37.68 37.68H69.672A56.12 56.12 0 0032 293.26v-68.64z" fill="#aac16b"/><circle cx="168" cy="258.94" r="40" fill="#79a73a"/><path d="M330.456 154.94l-18.968-48.8-.864-2.152A56.12 56.12 0 01261.68 82.94l-2.144.864L88 154.94h242.456z" fill="#aac16b"/><path d="M126.584 138.94L88 154.94h242.456l-6.216-16H126.584z" fill="#89b140"/><g fill="#79a73a"><circle cx="80" cy="258.94" r="8"/><circle cx="256" cy="258.94" r="8"/></g></svg>