<svg xmlns="http://www.w3.org/2000/svg" viewBox="0 0 512 512"><path d="M10.667 138.667h490.667c5.891 0 10.667 4.776 10.667 10.667v213.333c0 5.891-4.776 10.667-10.667 10.667H10.667C4.776 373.333 0 368.558 0 362.667V149.333c0-5.891 4.776-10.666 10.667-10.666z" fill="#35d073"/><g fill="#fafafa"><path d="M181.333 309.333a10.666 10.666 0 01-8.533-4.267L128 245.333v53.333c0 5.891-4.776 10.667-10.667 10.667s-10.667-4.776-10.667-10.667v-85.333c0-5.891 4.776-10.667 10.667-10.667 3.357 0 6.519 1.581 8.533 4.267l44.8 59.733v-53.333c0-5.891 4.776-10.667 10.667-10.667S192 207.442 192 213.333v85.333a10.665 10.665 0 01-7.296 10.133c-1.09.351-2.226.53-3.371.534zm85.334 0H224c-5.891 0-10.667-4.776-10.667-10.667v-85.333c0-5.891 4.776-10.667 10.667-10.667h42.667c5.891 0 10.667 4.776 10.667 10.667S272.558 224 266.667 224h-32v64h32c5.891 0 10.667 4.776 10.667 10.667-.001 5.891-4.776 10.666-10.667 10.666z"/><path d="M266.667 266.667H224c-5.891 0-10.667-4.776-10.667-10.667s4.776-10.667 10.667-10.667h42.667c5.891 0 10.667 4.776 10.667 10.667-.001 5.891-4.776 10.667-10.667 10.667zm106.666 42.666a10.666 10.666 0 01-10.112-7.296L352 268.395l-11.221 33.643c-1.872 5.586-7.918 8.596-13.503 6.724a10.665 10.665 0 01-6.955-7.514l-21.333-85.333c-1.558-5.681 1.785-11.55 7.466-13.108s11.55 1.785 13.108 7.466c.044.159.083.318.12.479l12.459 49.792 9.749-29.248c2.519-5.585 9.089-8.07 14.674-5.55a11.095 11.095 0 015.55 5.55l9.749 29.248 12.459-49.792c1.293-5.747 7.001-9.358 12.748-8.065 5.747 1.293 9.358 7.001 8.065 12.748a9.897 9.897 0 01-.12.48l-21.333 85.333a10.666 10.666 0 01-9.941 8.085h-.408z"/></g></svg>