<svg viewBox="0 0 64 64" xmlns="http://www.w3.org/2000/svg"><g data-name="sign 路 ecommerce 路 shopping 路 tag 路 sale"><path d="M53.841 5.685l-15.4 2.3a8 8 0 00-4.477 2.256L4.009 40.192a4 4 0 000 5.657l14.142 14.142a4 4 0 005.657 0l29.968-29.968a8 8 0 002.25-4.44l1.2-7.786 1.161-7.547a4 4 0 00-4.546-4.565zM52.8 15.444a3.022 3.022 0 11.835-1.664 3 3 0 01-.835 1.664z" fill="#ed1c24"/><path d="M56.256 6.085L55.224 12.8l-1.2 7.786a8 8 0 01-2.25 4.44L21.808 54.991a4 4 0 01-5.657 0L3.026 41.867a3.982 3.982 0 00.983 3.982l14.142 14.142a4 4 0 005.657 0l29.968-29.968a8 8 0 002.25-4.44l1.2-7.786 1.161-7.547a4 4 0 00-2.131-4.165z" fill="#cf1820"/><path d="M23.1 43.728a3 3 0 00-4.243 0l-1.414 1.414a1 1 0 01-1.415 0l-1.414-1.414a1 1 0 010-1.415l2.828-2.828a1 1 0 00-1.414-1.414L13.2 40.9a3 3 0 000 4.243l1.414 1.414a3 3 0 004.243 0l1.414-1.414a1 1 0 011.415 0l1.414 1.413a1 1 0 010 1.415L20.272 50.8a1 1 0 101.414 1.414l2.829-2.828a3 3 0 000-4.243zm11.415-6.1l-10.607-6.364a1 1 0 00-1.221.15l-1.415 1.415a1 1 0 00-.15 1.221l6.364 10.607a1 1 0 101.715-1.03l-1.72-2.866 3.138-3.138 2.866 1.72a1 1 0 001.03-1.715zm-8.095 1.366l-3.182-5.3.31-.31 5.3 3.182zm14.237-8.58l-3.536 3.536-7.778-7.778a1 1 0 10-1.414 1.414l8.485 8.485a1 1 0 001.414 0l4.243-4.243a1 1 0 00-1.414-1.414zm6.657-6.657l-2.829 2.829-2.828-2.829 1.414-1.414a1 1 0 00-1.414-1.414l-1.414 1.414-2.829-2.828 2.829-2.829a1 1 0 10-1.414-1.414l-3.536 3.536a1 1 0 000 1.414l8.485 8.485a1 1 0 001.414 0l3.536-3.536a1 1 0 10-1.414-1.414z" fill="#f1f2f2"/><path d="M53.776 30.023L42.454 41.345c.047.368.081.657.094.74C43.835 50.278 47.311 56 51 56c4.878 0 9-9.617 9-21 0-5.965-1.1-11.514-3.036-15.516l-.938 6.1a8 8 0 01-2.25 4.439z" fill="none"/><path d="M57.457 16.28l.928-6.03a4 4 0 00-2.129-4.165L55.224 12.8l-.126.818a11.909 11.909 0 012.359 2.662z" fill="#cf1820"/><path d="M58.09 17.3c-.2-.359-.417-.692-.633-1.017a11.909 11.909 0 00-2.357-2.668A6.484 6.484 0 0051 12a1 1 0 000 2 5.206 5.206 0 013.729 2.01 12.751 12.751 0 011.624 2.277c.215.376.413.787.611 1.2C58.9 23.486 60 29.035 60 35c0 11.383-4.122 21-9 21-3.689 0-7.165-5.722-8.452-13.915-.013-.083-.047-.372-.094-.74L40.7 43.1C42.277 52.172 46.278 58 51 58c6.168 0 11-10.1 11-23 0-6.915-1.426-13.369-3.91-17.7z" fill="#ffcd00"/></g></svg>