<svg xmlns="http://www.w3.org/2000/svg" viewBox="0 0 480 480"><path d="M352 0H128c-22.08.026-39.974 17.92-40 40v400c.026 22.08 17.92 39.974 40 40h224c22.08-.026 39.974-17.92 40-40V40c-.026-22.08-17.92-39.974-40-40zm24 440c0 13.255-10.745 24-24 24H128c-13.255 0-24-10.745-24-24v-8h272v8zm0-24H104V64h272v352zm0-368H104v-8c0-13.255 10.745-24 24-24h224c13.255 0 24 10.745 24 24v8z"/><path d="M224 24h-16a8 8 0 000 16h16a8 8 0 000-16zm56 0h-32a8 8 0 000 16h32a8 8 0 000-16zm-16 416h-48a8 8 0 000 16h48a8 8 0 000-16z"/></svg>